<svg width="16" height="16" viewBox="0 0 16 16" fill="none" xmlns="http://www.w3.org/2000/svg">
  <path d="M8.5 1.5C8.5 1.22386 8.27614 1 8 1C7.72386 1 7.5 1.22386 7.5 1.5V6.79289L5.35355 4.64645C5.15829 4.45118 4.84171 4.45118 4.64645 4.64645C4.45118 4.84171 4.45118 5.15829 4.64645 5.35355L7.64645 8.35355C7.84171 8.54882 8.15829 8.54882 8.35355 8.35355L11.3536 5.35355C11.5488 5.15829 11.5488 4.84171 11.3536 4.64645C11.1583 4.45118 10.8417 4.45118 10.6464 4.64645L8.5 6.79289V1.5Z" fill="#17AD49"/>
  <path d="M2 7.5C1.73478 7.5 1.48043 7.60536 1.29289 7.79289C1.10536 7.98043 1 8.23478 1 8.5V12.5C1 12.7652 1.10536 13.0196 1.29289 13.2071C1.48043 13.3946 1.73478 13.5 2 13.5H14C14.2652 13.5 14.5196 13.3946 14.7071 13.2071C14.8946 13.0196 15 12.7652 15 12.5V8.5C15 8.23479 14.8946 7.98043 14.7071 7.79289C14.5196 7.60536 14.2652 7.5 14 7.5H11C10.7239 7.5 10.5 7.72386 10.5 8C10.5 8.27614 10.7239 8.5 11 8.5H14V12.5H2V8.5L5 8.5C5.27614 8.5 5.5 8.27614 5.5 8C5.5 7.72386 5.27614 7.5 5 7.5H2Z" fill="#17AD49"/>
  <path d="M12.5 10.5C12.5 10.9142 12.1642 11.25 11.75 11.25C11.3358 11.25 11 10.9142 11 10.5C11 10.0858 11.3358 9.75 11.75 9.75C12.1642 9.75 12.5 10.0858 12.5 10.5Z" fill="#17AD49"/>
</svg>
